<svg viewBox="0 0 128 128" xmlns="http://www.w3.org/2000/svg"><path d="m109.757 49.765-5.14-15.82-10.187-31.349c-.523-1.614-2.805-1.614-3.33 0l-10.187 31.35h-33.826l-10.187-31.35c-.524-1.614-2.806-1.614-3.33 0l-10.187 31.35-5.14 15.82a3.502 3.502 0 0 0 1.272 3.915l44.485 32.319 44.485-32.32a3.502 3.502 0 0 0 1.272-3.915" fill="#fc6d26"/><path d="m64 86 16.913-52.054h-33.826z" fill="#e24329"/><path d="m64 86-16.913-52.054h-23.704z" fill="#fc6d26"/><path d="m23.383 33.946-5.14 15.82a3.502 3.502 0 0 0 1.272 3.914l44.485 32.32z" fill="#fca326"/><path d="m23.383 33.946h23.704l-10.187-31.352c-.524-1.613-2.806-1.613-3.33 0z" fill="#e24329"/><path d="m64 86 16.913-52.054h23.704z" fill="#fc6d26"/><path d="m104.617 33.946 5.14 15.82a3.502 3.502 0 0 1 -1.272 3.914l-44.485 32.32z" fill="#fca326"/><path d="m104.617 33.946h-23.704l10.187-31.352c.524-1.613 2.806-1.613 3.33 0z" fill="#e24329"/><path d="m65.387 93.983h-4.49l.015 33.405h18.16v-4.13h-13.672l-.015-29.275zm30.976 27.54a7.648 7.648 0 0 1 -5.56 2.346c-3.418 0-4.795-1.684-4.795-3.877 0-3.315 2.295-4.896 7.192-4.896.918 0 2.397.102 3.162.255v6.17zm-4.642-20.247c-3.624 0-6.95 1.285-9.543 3.423l1.587 2.747c1.836-1.07 4.08-2.142 7.294-2.142 3.673 0 5.305 1.887 5.305 5.05v1.63c-.714-.152-2.193-.254-3.11-.254-7.857 0-11.835 2.755-11.835 8.518 0 5.15 3.162 7.752 7.957 7.752 3.23 0 6.325-1.48 7.396-3.876l.817 3.264h3.163v-17.085c0-5.406-2.347-9.027-9.03-9.027zm23.513 22.746c-1.683 0-3.163-.204-4.285-.714v-15.452c1.53-1.275 3.417-2.193 5.814-2.193 4.336 0 6.02 3.06 6.02 8.007 0 7.037-2.704 10.352-7.55 10.352m1.886-22.746c-4.012 0-6.17 2.73-6.17 2.73v-4.31l-.015-5.713h-4.386l.014 32.59c2.193.917 5.203 1.427 8.467 1.427 8.364 0 12.394-5.355 12.394-14.586 0-7.293-3.723-12.138-10.304-12.138m-100.527-3.672c3.98 0 6.53 1.326 8.212 2.652l1.93-3.34c-2.63-2.306-6.167-3.545-9.94-3.545-9.538 0-16.22 5.815-16.22 17.545 0 12.289 7.21 17.084 15.456 17.084 4.132 0 7.652-.97 9.947-1.938l-.094-13.132v-4.13h-12.243v4.13h7.805l.094 9.97c-1.02.51-2.806.918-5.204.918-6.63 0-11.07-4.17-11.07-12.954.002-8.925 4.593-13.26 11.326-13.26m31.569-3.621h-4.387l.014 5.61v19.379c0 5.407 2.347 9.028 9.03 9.028.922 0 1.825-.084 2.702-.243v-3.94a13.47 13.47 0 0 1 -2.04.154c-3.674 0-5.306-1.886-5.306-5.048v-13.363h7.345v-3.672h-7.346l-.014-7.905zm-15.518 33.405h4.387v-25.5h-4.389v25.5zm0-29.018h4.387v-4.387h-4.389v4.386z" fill="#5c5c5c"/></svg>